<?xml version="1.0" encoding="UTF-8"?>
<svg width="59px" height="59px" viewBox="0 0 59 59" version="1.1" xmlns="http://www.w3.org/2000/svg" xmlns:xlink="http://www.w3.org/1999/xlink">
    <!-- Generator: Sketch 52.2 (67145) - http://www.bohemiancoding.com/sketch -->
    <title>我的考评结果</title>
    <desc>Created with Sketch.</desc>
    <g id="Page-1" stroke="none" stroke-width="1" fill="none" fill-rule="evenodd">
        <g id="我的" transform="translate(-158.000000, -259.000000)">
            <g id="我的考评结果" transform="translate(158.000000, 259.000000)">
                <circle id="Oval-3-Copy" fill="#5177AA" fill-rule="nonzero" cx="29.5" cy="29.5" r="29.5"></circle>
                <path d="M37.3111893,32 C35.4351851,33.7713015 32.9985904,34.9522097 30.1862412,34.9522097 C27.373892,34.9522097 24.9372973,33.7713015 22.8733529,32 C18.1882716,34.5563433 15,37.9010537 15,44 L45,44 C45,37.9010537 41.8117284,34.7541954 37.3111893,32 Z M29.998315,32 C34.4418464,32 38,28.3466922 38,23.999939 C38,19.6533078 34.4450917,16 29.998315,16 C25.5514966,16 22,19.6499704 22,23.999939 C22,28.5193821 25.731235,32 29.998315,32 Z" id="Fill-1" fill="#FFFFFF"></path>
            </g>
        </g>
    </g>
</svg>