<?xml version="1.0" encoding="UTF-8"?>
<svg width="36px" height="36px" viewBox="0 0 36 36" version="1.1" xmlns="http://www.w3.org/2000/svg" xmlns:xlink="http://www.w3.org/1999/xlink">
    <!-- Generator: Sketch 52.2 (67145) - http://www.bohemiancoding.com/sketch -->
    <title>待评价</title>
    <desc>Created with Sketch.</desc>
    <g id="Page-1" stroke="none" stroke-width="1" fill="none" fill-rule="evenodd">
        <g id="我的-考评记录" transform="translate(-25.000000, -199.000000)" fill="#9CC581">
            <g id="待评价" transform="translate(25.000000, 199.000000)">
                <path d="M17.9999758,0 C8.05859328,0 0,8.0586041 0,18 C0,27.9413959 8.05859328,36 17.9999758,36 C27.9414067,36 36,27.9413959 36,18 C36,8.0586041 27.9414067,0 17.9999758,0 Z M17.9999045,34 C9.16261,34 2,26.8372468 2,17.9999045 C2,9.16256225 9.16261,2 17.9999045,2 C26.8372468,2 34,9.16256225 34,17.9999045 C34,26.835528 26.8372468,34 17.9999045,34 Z M28.3680938,13.1438952 L22.0082706,12.5519503 L18.6322401,6.45639858 C18.5242012,6.17954729 18.2748012,6 18.0000527,6 C17.7251073,6 17.4757565,6.17954729 17.3676684,6.45639858 L13.9549687,12.5519503 L7.63186388,13.1438952 C7.35327614,13.167766 7.11869149,13.3730543 7.03255571,13.6643264 C6.94833952,13.953876 7.03063611,14.2728579 7.24326844,14.4689424 L12.2193572,19.6975682 L10.5056489,27.0706717 C10.4414655,27.3655859 10.5441393,27.6735922 10.7677478,27.8531887 C10.9913563,28.032736 11.2884017,28.0492733 11.5266287,27.8935475 L18.0017754,23.8523062 L24.4935094,27.8935475 C24.6017452,27.9648644 24.7244025,27.9996615 24.8453372,27.9996615 C24.988421,27.9996615 25.1314556,27.9502467 25.2523903,27.8531887 C25.4740792,27.6735922 25.5784757,27.3655859 25.5125203,27.0706717 L23.7348254,19.6646905 L28.75664,14.4689424 C28.9693216,14.2728579 29.0517658,13.953876 28.9673528,13.6643264 C28.881217,13.3730543 28.644762,13.167766 28.3680938,13.1438952 Z M25.8231037,15.2977945 L22.1705277,19.2427866 L23.4644874,24.3234482 C23.5107395,24.5367233 23.4361348,24.7622632 23.2743242,24.8920226 C23.1872615,24.9632257 23.0824426,24.998684 22.9774805,24.998684 C22.8904178,24.998684 22.8014936,24.9720067 22.7214952,24.9222314 L17.9725688,21.9831493 L13.2909442,24.9222314 C13.1167711,25.0359558 12.9015964,25.0236433 12.7399767,24.8938838 C12.5781184,24.7622632 12.5035137,24.5383936 12.5497658,24.3251185 L13.7956597,19.2677936 L10.1769732,15.2977945 C10.0224178,15.1538613 9.96198944,14.9229286 10.0240884,14.7113239 C10.0863784,14.49991 10.2569716,14.3505841 10.4596406,14.3328788 L14.725283,13.7643043 L17.5405488,9.33053101 C17.6188289,9.12975943 17.8000663,9 18.0008737,9 C18.2016812,9 18.381248,9.13142974 18.4593848,9.33239222 L21.2481595,13.7659747 L25.5404363,14.33474 C25.7412437,14.3524453 25.9137463,14.5017712 25.9757975,14.7131851 C26.0380874,14.9229286 25.9776591,15.1557702 25.8231037,15.2977945 Z"></path>
            </g>
        </g>
    </g>
</svg>